<svg xmlns="http://www.w3.org/2000/svg" viewBox="0 0 512 512"><g id="Livello_10" data-name="Livello 10"><path d="M215.73,392.91a13.4,13.4,0,0,1-11.07-5L100,283.18A14.71,14.71,0,0,1,100,261l22.15-23.15a15.83,15.83,0,0,1,23.15,0l70.47,70.47,151-151a15.83,15.83,0,0,1,23.15,0L412,180.5a14.7,14.7,0,0,1,0,22.14L226.81,387.88A13.44,13.44,0,0,1,215.73,392.91Z"/><path d="M256,505.66q67.46,0,124.83-33.72a252.17,252.17,0,0,0,91.11-91.11Q505.66,323.46,505.66,256T471.94,131.17a252.17,252.17,0,0,0-91.11-91.11Q323.46,6.34,256,6.34T131.17,40.06a252.17,252.17,0,0,0-91.11,91.11Q6.34,188.55,6.34,256T40.06,380.83a252.17,252.17,0,0,0,91.11,91.11Q188.55,505.66,256,505.66Z"/></g></svg>