<svg xmlns="http://www.w3.org/2000/svg" viewBox="0 0 512 512"><g id="Livello_9" data-name="Livello 9"><path d="M422,459.08H90a6.92,6.92,0,0,1-5.85-5.86v-291H427.83v291a6.92,6.92,0,0,1-5.85,5.86Zm5.85,46.86a46.67,46.67,0,0,0,46.87-46.86V115.41a46.67,46.67,0,0,0-46.87-46.87H381V17.78a11.27,11.27,0,0,0-3.42-8.3,11.27,11.27,0,0,0-8.3-3.42H330.2a11.31,11.31,0,0,0-8.3,3.42,11.27,11.27,0,0,0-3.41,8.3V68.54h-125V17.78a11.27,11.27,0,0,0-3.41-8.3,11.31,11.31,0,0,0-8.3-3.42H142.75a11.27,11.27,0,0,0-8.3,3.42,11.27,11.27,0,0,0-3.42,8.3V68.54H84.17A45.21,45.21,0,0,0,51,82.21a45.22,45.22,0,0,0-13.67,33.2V459.08A45.2,45.2,0,0,0,51,492.27a45.21,45.21,0,0,0,33.2,13.67Z"/></g></svg>