<?xml version="1.0" encoding="utf-8"?>
<!-- Generator: Adobe Illustrator 24.0.1, SVG Export Plug-In . SVG Version: 6.00 Build 0)  -->
<svg version="1.1" id="Livello_1" xmlns="http://www.w3.org/2000/svg" xmlns:xlink="http://www.w3.org/1999/xlink" x="0px" y="0px"
	 viewBox="0 0 512 512" style="enable-background:new 0 0 512 512;" xml:space="preserve">
<style type="text/css">
	.st0{fill:none;stroke:#000000;stroke-width:37;stroke-miterlimit:10;}
</style>
<g>
	<path d="M416,178.6l-22.6-23.8c-0.3-0.3-0.5-0.5-0.8-0.8c-6.6-6.1-16.8-5.8-22.9,0.8L214.7,309.6l-72.3-72.3
		c-0.3-0.3-0.5-0.5-0.8-0.8c-6.6-6.1-16.8-5.8-22.9,0.8L96,261.1c-0.5,0.5-1,0.9-1.5,1.5c-5.5,6.3-4.8,15.8,1.5,21.3l107.3,107.4
		c2.7,3.4,7,5.3,11.4,5.1c4.4,0.2,8.6-1.7,11.4-5.2L416,201.3c0.5-0.4,1-0.9,1.4-1.4C422.9,193.6,422.2,184.1,416,178.6z"/>
</g>
<circle class="st0" cx="256" cy="256" r="232.4"/>
</svg>
