<svg xmlns="http://www.w3.org/2000/svg" viewBox="0 0 512 512"><defs><style>.cls-1{fill-rule:evenodd;}</style></defs><g id="Livello_14" data-name="Livello 14"><path class="cls-1" d="M189.72,256a66.32,66.32,0,1,1,66.3,66.3,66.39,66.39,0,0,1-66.3-66.3M154,256A102,102,0,1,0,256,154,101.83,101.83,0,0,0,154,256M338.45,149.8A23.79,23.79,0,1,0,362.24,126a23.74,23.74,0,0,0-23.79,23.79M138.72,411.1a67,67,0,0,1-37.78-37.81c-10.4-26.19-8-88.34-8-117.27s-2.33-91.21,8-117.33a67.06,67.06,0,0,1,37.78-37.81c26.22-10.4,88.37-8,117.3-8s91.21-2.33,117.33,8a67.05,67.05,0,0,1,37.81,37.81c10.4,26.19,8,88.35,8,117.33s2.4,91.15-8,117.27a67,67,0,0,1-37.81,37.81c-26.19,10.4-88.37,8-117.33,8-8.94,0-21.09.22-34.38.22-29.61,0-64.87-1.09-82.92-8.22M173.89,58.45c-31.77,1.48-60,8.77-83.35,32S60,142,58.38,173.88c-1.84,32.83-1.84,131.29,0,164.15,1.53,31.91,8.81,60.12,32.16,83.4S142,452,173.89,453.56c32.86,1.87,131.36,1.87,164.2,0,31.89-1.5,60.12-8.78,83.4-32.13s30.5-51.49,32.1-83.4c.9-15.42,1.36-45.28,1.41-76V250c-.05-30.72-.51-60.58-1.41-76-1.48-31.89-8.78-60.12-32.1-83.4S370,60,338.09,58.45C321.67,57.5,288.84,57,256,57s-65.67.46-82.11,1.41"/></g></svg>