<?xml version="1.0" encoding="utf-8"?>
<!-- Generator: Adobe Illustrator 24.0.1, SVG Export Plug-In . SVG Version: 6.00 Build 0)  -->
<svg version="1.1" id="Livello_1" xmlns="http://www.w3.org/2000/svg" xmlns:xlink="http://www.w3.org/1999/xlink" x="0px" y="0px"
	 viewBox="0 0 512 512" style="enable-background:new 0 0 512 512;" xml:space="preserve">
<style type="text/css">
	.st0{fill-rule:evenodd;clip-rule:evenodd;}
	.st1{fill-rule:evenodd;clip-rule:evenodd;fill:#FFFFFF;}
</style>
<rect x="-36" y="-22" class="st0" width="593.5" height="593.5"/>
<g id="Livello_15">
	<path class="st1" d="M332.3,94.3l4.4,0.1c21.1,1.1,40.9,10.3,55.4,25.8l6.1-1.3c16.1-3.9,31.6-10.1,45.8-18.6l-1.4,4
		c-6.6,17.2-18.7,31.6-34.4,41.1l6.2-0.9c14.1-2.2,27.8-6.3,40.9-12l-3.8,5.4c-10.4,14.2-22.9,26.7-37.1,37l0.1,5.3v5.3v4.3
		c-2.1,106.8-84.1,228-232.3,228l-6.9-0.1c-42-1.2-82.9-13.8-118.3-36.5l6.4,0.7c4.3,0.4,8.7,0.5,13.1,0.5l6-0.1
		c34.7-1.3,68.1-13.5,95.5-35l-3.7-0.1c-33.5-2.1-62.4-24.5-72.6-56.5l3.7,0.6c3.8,0.5,7.7,0.7,11.6,0.7l4.4-0.1
		c5.8-0.3,11.5-1.2,17.1-2.7l-3.5-0.8c-36.5-8.9-62.2-41.6-62.2-79.2v-1l3.7,1.9c10.4,5.1,21.7,7.9,33.3,8.2l-3.1-2.2
		c-21-15.4-33.3-39.9-33.3-65.9l0.1-4.5c0.6-12.9,4.4-25.5,11-36.6l3.8,4.6c41.5,48.4,101,77.6,164.6,80.8L252,190
		c-0.8-4.7-1.2-9.4-1.2-14.2l0.1-3.6C252.8,128.7,288.7,94.3,332.3,94.3z"/>
</g>
</svg>
