<svg xmlns="http://www.w3.org/2000/svg" viewBox="0 0 512 512"><defs><style>.cls-1{fill-rule:evenodd;}</style></defs><g id="Livello_15" data-name="Livello 15"><path class="cls-1" d="M332.3,94.27l4.38.11a81.85,81.85,0,0,1,55.37,25.75l6.12-1.31A165.31,165.31,0,0,0,444,100.24l-1.42,4a82.63,82.63,0,0,1-34.42,41.12l6.16-.86a165.91,165.91,0,0,0,40.86-12l-3.83,5.44a168.88,168.88,0,0,1-37.13,37l.13,5.26,0,5.27,0,4.26c-2.13,106.82-84.13,228-232.27,228l-6.9-.1A231.61,231.61,0,0,1,56.85,381.09l6.41.68q6.46.53,13.11.52l6-.11a164.35,164.35,0,0,0,95.47-35l-3.69-.14a81.38,81.38,0,0,1-72.56-56.53l3.74.61a87.21,87.21,0,0,0,11.56.73l4.4-.12a83.22,83.22,0,0,0,17.12-2.66l-3.48-.76a81.54,81.54,0,0,1-62.22-79.24v-1l3.7,1.95a81.32,81.32,0,0,0,33.3,8.2l-3.08-2.18a81.85,81.85,0,0,1-33.33-65.93l.12-4.46a79.23,79.23,0,0,1,11-36.58l3.83,4.58a232.2,232.2,0,0,0,164.6,80.82L252,190a81.61,81.61,0,0,1-1.24-14.19l.07-3.55A81.59,81.59,0,0,1,332.3,94.27Z"/></g></svg>