<?xml version="1.0" encoding="utf-8"?>
<!-- Generator: Adobe Illustrator 24.0.1, SVG Export Plug-In . SVG Version: 6.00 Build 0)  -->
<svg version="1.1" id="Livello_1" xmlns="http://www.w3.org/2000/svg" xmlns:xlink="http://www.w3.org/1999/xlink" x="0px" y="0px"
	 viewBox="0 0 90 28.3" style="enable-background:new 0 0 90 28.3;" xml:space="preserve">
<style type="text/css">
	.st0{fill:#E64011;}
	.st1{fill:#1D1D1B;}
</style>
<g>
	<path class="st0" d="M11.5,12.6C11.5,12.6,11.5,12.6,11.5,12.6c0,0.3,0,0.5,0.1,0.5c0,0,0.1,0.1,0.1,0.2c0,0.1,0,0.1,0.1,0.1
		c0,0,0.1,0,0.1,0.1c0,0,0,0.1,0,0.1c0,0.1,0,0.1,0,0.1c0,0,0.1,0.1,0.1,0.1c0.2,0.2,0.5,0.5,0.6,0.5c0,0,0,0,0,0c0,0,0,0,0,0
		c0,0.1,0.2,0.1,0.3,0.1c0.1,0,0.3,0,0.3,0c0,0,0.1,0,0.1,0c0.1,0,0.1,0,0.1,0c0,0,0.1,0,0.1,0c0,0,0.1,0,0.1,0h0
		c0.1,0,0.2,0,0.3-0.1c0.1,0,0.2-0.1,0.2-0.1c0.1,0,0.2,0,0.3-0.2c0.1-0.1,0.4-0.2,0.5-0.3l0,0c0.2-0.1,0.2-0.2,0.2-0.3
		c0-0.1,0-0.2,0.1-0.3c0,0,0-0.1,0-0.1c0-0.1,0-0.1,0.1-0.2c0.1-0.1,0-0.2,0-0.2c0,0,0-0.1,0-0.1c0.1-0.3-0.1-0.8-0.4-1
		c0,0-0.1-0.1-0.3-0.3c-0.2-0.2-0.3-0.3-0.3-0.3c-0.1-0.1-0.9-0.4-1-0.4c0,0,0,0,0,0c0,0,0,0,0,0c-0.1,0.1-0.2,0.1-0.3,0.1
		c-0.1,0-0.1,0-0.2,0c-0.1,0-0.1,0-0.2,0c-0.1,0-0.3,0-0.3,0.1c0,0-0.1,0.1-0.1,0.1c0,0-0.1,0-0.1,0c0,0,0,0.1,0,0.1c0,0,0,0,0,0
		c0,0,0,0,0,0c0,0,0,0,0,0c0,0,0,0,0,0c-0.1,0-0.1,0-0.1,0.1c0,0,0,0.1,0,0.1c-0.3,0.3-0.6,0.8-0.5,1.2c0,0,0,0,0,0
		C11.5,12.4,11.4,12.5,11.5,12.6C11.5,12.5,11.5,12.6,11.5,12.6"/>
	<path class="st1" d="M15.6,12.8c0,0-0.1,0.1-0.1,0.2c0,0.1,0,0.1,0,0.1c-0.1,0.1-0.1,0.2-0.1,0.3c0,0.1-0.1,0.3-0.2,0.3l0,0
		c-0.2,0.1-0.4,0.2-0.5,0.3c-0.1,0.1-0.2,0.2-0.3,0.2c-0.1,0-0.2,0-0.2,0.1c-0.1,0-0.2,0.1-0.3,0.1h0c0,0-0.1,0-0.1,0
		c0,0-0.1,0-0.1,0c-0.1,0-0.1,0-0.1,0c0,0-0.1,0-0.1,0c0,0-0.2,0-0.3,0c-0.1,0-0.2,0-0.3-0.1c0,0,0,0,0,0c0,0,0,0,0,0
		c-0.1,0-0.4-0.3-0.6-0.5c-0.1-0.1-0.1-0.1-0.1-0.1c0,0,0-0.1,0-0.1c0,0,0-0.1,0-0.1c0,0,0,0-0.1-0.1c-0.1,0-0.1-0.1-0.1-0.1
		c0-0.1,0-0.1-0.1-0.2c-0.1,0-0.1-0.3-0.1-0.5c0,0,0,0,0-0.1c0,0-0.1,0-0.1,0c0,0,0-0.1,0.1-0.2c0,0,0,0,0,0c0-0.4,0.2-1,0.5-1.2
		c0,0,0,0,0-0.1c0,0,0-0.1,0.1-0.1c0,0,0,0,0,0c0,0,0,0,0,0c0,0,0,0,0,0c0,0,0,0,0,0c0,0,0-0.1,0-0.1c0,0,0.1,0,0.1,0
		c0.1,0,0.1,0,0.1-0.1c0-0.1,0.2-0.1,0.3-0.1c0.1,0,0.1,0,0.2,0c0.1,0,0.1,0,0.2,0c0.1,0,0.2,0,0.3-0.1c0,0,0,0,0,0c0,0,0,0,0,0
		c0.2,0,1,0.3,1,0.4c0,0,0.1,0.1,0.3,0.3c0.1,0.1,0.2,0.3,0.3,0.3c0.3,0.2,0.4,0.7,0.4,1c0,0,0,0.1,0,0.1
		C15.6,12.6,15.6,12.7,15.6,12.8 M27.9,13.4C27.9,13.4,27.9,13.4,27.9,13.4C27.9,13.4,27.9,13.4,27.9,13.4c-0.1-0.3-0.1-0.6-0.1-0.9
		c0-0.2,0-0.4,0-0.6l0,0c0-0.1,0-0.4-0.1-0.5c0-0.1-0.1-0.1-0.1-0.2c0-0.1-0.1-0.1-0.1-0.2c-0.1-0.2-0.1-0.3-0.1-0.5
		c0-0.1,0-0.2,0-0.3c0-0.1-0.2-0.3-0.2-0.4c0,0,0,0,0-0.1c0,0,0-0.1-0.1-0.1c0-0.1-0.1-0.2-0.1-0.3c0-0.1,0-0.3-0.1-0.4
		c0-0.1-0.1-0.1-0.1-0.1c0-0.1-0.1-0.1-0.1-0.2c-0.1-0.1-0.1-0.3-0.1-0.4c0-0.2,0-0.3-0.2-0.5c0,0,0,0-0.1,0c0,0,0,0-0.1,0
		c0,0,0-0.1,0-0.1c0,0,0-0.1,0-0.1c0,0-0.1-0.1-0.1-0.1c-0.1,0-0.1,0-0.1-0.1c0,0,0-0.1-0.1-0.2c0-0.1,0-0.2-0.1-0.3
		c0,0-0.1-0.1-0.1-0.1c0,0-0.1-0.1-0.1-0.1c0,0,0-0.1,0-0.1c0-0.1,0-0.1,0-0.1c0-0.1-0.1-0.1-0.2-0.2c-0.1,0-0.1-0.1-0.2-0.2
		c0-0.1-0.1-0.1-0.1-0.2c0-0.1-0.1-0.2-0.1-0.2c-0.1-0.1-0.1-0.2-0.2-0.3c0,0,0-0.1-0.1-0.1c-0.1-0.1-0.1-0.1-0.2-0.2
		c-0.1,0-0.1-0.1-0.2-0.1c-0.1-0.1-0.1-0.2-0.2-0.3c0-0.1-0.1-0.2-0.1-0.3c0,0-0.1,0-0.1,0c0,0-0.1,0-0.1,0c0,0-0.1-0.1-0.1-0.2
		c0-0.1,0-0.1-0.1-0.2c-0.1-0.1-0.1-0.1-0.2-0.1c-0.1,0-0.2,0-0.2-0.1c-0.1-0.1-0.1-0.2-0.2-0.3c-0.1-0.1-0.1-0.2-0.2-0.3
		c0,0-0.1,0-0.1-0.1c0,0-0.1,0-0.1-0.1c-0.1-0.1-0.3-0.2-0.4-0.4c-0.1-0.2-0.3-0.3-0.4-0.4c0,0-0.1,0-0.2,0c-0.1,0-0.1,0-0.1,0
		c0,0,0,0,0,0c0,0,0-0.1-0.1-0.1c-0.1-0.1-0.2-0.1-0.3-0.2c-0.1-0.1-0.2-0.2-0.3-0.2c-0.1,0-0.2-0.1-0.3-0.1c-0.1,0-0.2,0-0.2,0
		c-0.1,0-0.1-0.1-0.2-0.1c-0.1,0-0.1-0.1-0.1-0.1c0,0-0.1,0-0.2,0c0,0,0,0,0,0c0,0,0-0.1-0.1-0.1c0-0.1-0.1-0.2-0.1-0.2
		c-0.1,0-0.2-0.1-0.3-0.1C19.3,1,19.2,1,19.1,1c-0.1,0-0.2-0.1-0.2-0.1c-0.2-0.1-0.4-0.2-0.7-0.2c-0.1,0-0.1,0-0.2-0.1
		c-0.1,0-0.1,0-0.2-0.1c0,0-0.1,0-0.1,0c0,0-0.1,0-0.1,0c-0.1,0-0.1-0.1-0.1-0.1c0,0-0.1-0.1-0.1-0.1c-0.1,0-0.2,0-0.3,0
		c-0.1,0-0.2,0-0.4,0c-0.1,0-0.2,0-0.3-0.1c-0.1,0-0.2-0.1-0.3-0.1c-0.1,0-0.1,0-0.2,0c0,0-0.1,0-0.1,0c-0.2,0-0.4,0-0.7-0.1
		c-0.2,0-0.5-0.1-0.7-0.1c-0.1,0-0.1,0-0.2,0c-0.1,0-0.3,0.1-0.4,0c0,0,0,0,0,0c0,0,0,0,0,0c0,0,0,0,0,0h-0.2c0,0,0,0,0,0
		c0,0,0,0,0,0c-0.2,0.1-0.4,0.1-0.5,0.1c-0.1,0-0.2,0-0.3,0c-0.1,0-0.2,0.1-0.3,0.1c-0.1,0-0.2,0.1-0.3,0.1c-0.1,0-0.2,0-0.2,0
		c-0.1,0-0.2,0-0.3,0c-0.1,0-0.3,0.1-0.4,0.1c-0.1,0-0.3,0.1-0.4,0.1c-0.1,0-0.2,0-0.2,0c-0.1,0-0.1,0-0.2,0c-0.1,0-0.2,0.1-0.3,0.2
		C9.9,0.8,9.8,0.8,9.7,0.9c-0.1,0-0.2,0-0.2,0c-0.1,0-0.2,0-0.2,0C8.9,1,8.6,1.2,8.3,1.3C7.9,1.5,7.4,1.8,7,2C7,2.1,6.7,2.2,6.6,2.2
		c0,0,0,0-0.1,0.1c0,0,0,0.1-0.1,0.1c0,0-0.1,0-0.1,0c0,0-0.1,0-0.1,0C6.1,2.6,6,2.7,5.8,2.8C5.7,2.9,5.6,3,5.4,3.1
		C5.2,3.3,5,3.5,4.8,3.6c0,0-0.1,0.1-0.1,0.2c0,0.1-0.1,0.1-0.1,0.2c0,0-0.1,0-0.1,0c0,0-0.1,0-0.1,0C4.2,4.1,4.1,4.2,4,4.3
		C3.9,4.4,3.9,4.5,3.8,4.5c0,0-0.1,0.1-0.1,0.1c-0.1,0-0.1,0.1-0.1,0.1c0,0-0.1,0.1-0.1,0.2c0,0.1,0,0.1-0.1,0.2
		c0,0-0.1,0.1-0.1,0.1c-0.1,0-0.1,0-0.2,0.1C3,5.3,3,5.4,3,5.5c0,0.1-0.1,0.2-0.1,0.3c0,0-0.1,0.1-0.1,0.1c0,0-0.1,0.1-0.1,0.1
		C2.6,6,2.5,6.1,2.5,6.2C2.3,6.4,2.1,6.7,2.1,7C1.9,7,1.9,7.1,1.9,7.2c0,0.1,0,0.1-0.1,0.2c0,0.1-0.1,0.1-0.1,0.2
		C1.6,7.7,1.5,7.8,1.5,7.9c0,0.1-0.1,0.2-0.1,0.3c0,0.1-0.1,0.2-0.1,0.3C1.1,8.7,1,8.8,1,8.9C1,9,0.9,9,0.9,9.1
		c-0.2,0.3-0.3,0.7-0.3,1.1c0,0.2-0.1,0.4-0.1,0.6c-0.1,0.3-0.1,0.5-0.2,0.7l0,0.1c0,0,0,0,0,0c0,0,0,0,0,0.1c0,0,0,0.1,0,0.1
		c0,0,0,0,0,0.1c0,0,0,0.1-0.1,0.1c0,0,0,0.1,0,0.1c-0.1,0.4,0,0.8,0,1.1c0,0,0,0.1,0,0.1c0,0,0,0-0.1,0c0,0-0.1,0.1-0.1,0.1
		c0,0,0,0.1-0.1,0.1c0,0,0,0,0,0c0,0,0,0,0,0c0,0,0,0,0,0c0,0,0,0,0,0v0.5c0,0,0,0,0,0c0,0,0,0,0,0c0,0,0,0,0,0c0,0,0,0,0,0
		c0.2,0.2,0.2,0.3,0.1,0.5c0,0.1,0,0.1-0.1,0.2c0,0.1,0,0.2,0,0.3c0,0.1,0,0.2,0,0.3c0,0.5,0,0.7,0.2,1.2c0.1,0.2,0.1,0.4,0.2,0.6
		c0.1,0.3,0.2,0.7,0.3,0.9c0,0,0,0,0.1,0.1c0,0,0.1,0.1,0.1,0.1c0,0,0,0.1,0,0.2c0,0.1,0,0.2,0,0.2c0,0.1,0,0.1,0.1,0.2
		c0,0.1,0.1,0.1,0.1,0.2c0,0.1,0,0.2,0,0.3c0,0.1,0,0.2,0.1,0.3c0,0,0.1,0.1,0.1,0.1c0,0,0.1,0.1,0.1,0.1c0,0,0,0.1,0,0.1
		c0,0,0,0.1,0,0.1c0.1,0.3,0.5,0.9,0.5,1c0,0,0.1,0,0.1,0c0,0,0.1,0,0.1,0c-0.1,0.2,0,0.4,0.1,0.6c0.1,0.1,0.3,0.4,0.5,0.6
		c0.1,0.1,0.2,0.2,0.2,0.3c0,0.1,0.1,0.1,0.1,0.2c0,0.1,0.1,0.1,0.1,0.1c0.1,0,0.1,0.1,0.2,0.1c0.1,0,0.1,0,0.1,0.1
		c0,0,0.1,0.1,0.1,0.2c0,0,0,0.1,0.1,0.1c0.1,0.1,0.3,0.2,0.4,0.3c0.2,0.1,0.4,0.2,0.4,0.4v0c0,0,0,0,0,0c0,0,0,0,0,0.1
		c0,0,0.1,0.1,0.1,0.1c0,0,0,0,0,0h0c0.1,0,0.2,0.1,0.2,0.2c0,0.1,0.1,0.1,0.1,0.2c0,0,0.1,0,0.1,0c0,0,0.1,0,0.1,0
		c0,0,0.1,0.1,0.1,0.1c0,0.1,0.1,0.1,0.2,0.2c0,0,0.1,0,0.1,0c0.1,0,0.1,0,0.2,0c0,0,0,0.1,0.1,0.2c0,0.1,0,0.1,0,0.2
		c0.1,0.1,0.2,0.1,0.3,0.1c0.1,0,0.2,0.1,0.3,0.1c0.1,0,0.1,0.1,0.1,0.2c0,0.1,0.1,0.2,0.1,0.2c0,0,0.1,0.1,0.3,0.1
		c0.1,0,0.2,0,0.3,0.1c0,0,0,0,0.1,0c0,0,0.1,0,0.1,0.1c0.1,0,0.1,0,0.2,0.1c0,0,0,0,0,0c0,0,0.1,0.1,0.1,0.2c0,0.1,0.1,0.1,0.1,0.2
		c0,0,0.1,0,0.2,0c0.1,0,0.1,0,0.2,0c0.1,0,0.2,0.2,0.3,0.2c0.1,0.1,0.1,0.1,0.2,0.1c0.1,0,0.2,0.1,0.3,0.1c0.1,0,0.2,0,0.3,0.1
		c0.1,0,0.1,0,0.2,0.1c0.1,0,0.3,0.1,0.4,0.2c0.3,0.1,0.6,0.2,1.1,0.3c0.1,0,0.2,0.1,0.4,0.1c0.1,0,0.2,0.1,0.4,0.1
		c0.2,0.1,0.5,0.1,0.8,0.1c0.2,0,0.4,0,0.6,0c0.1,0,0.1,0,0.2,0.1c0.1,0,0.1,0,0.2,0.1c0.2,0,0.4,0,0.6,0c0.4,0,0.8,0,0.9,0.1
		c0,0,0,0,0,0h0.4c0,0,0,0,0,0c0.2,0,0.3-0.1,0.4-0.2c0.1-0.1,0.3-0.2,0.4-0.2c0,0,0.1,0,0.1,0c0,0,0.1,0,0.1,0c0.1,0,0.2,0,0.2,0
		c0.1,0,0.2,0,0.2,0c0.1,0,0.1-0.1,0.2-0.1c0.1,0,0.1-0.1,0.2-0.1c0,0,0.1,0,0.1,0c0,0,0.1,0,0.2,0c0,0,0.1,0,0.1-0.1
		c0,0,0.1-0.1,0.1-0.1c0,0,0.1,0,0.1,0c0,0,0.1,0,0.1,0c0,0,0.1,0,0.1-0.1c0,0,0.1,0,0.1-0.1c0.1,0,0.1,0,0.2,0c0,0,0,0,0.1,0
		c0,0,0.1-0.1,0.1-0.1c0,0,0.1-0.1,0.1-0.1c0,0,0,0,0.1,0c0,0,0.1,0,0.1,0c0,0,0.1-0.1,0.1-0.1c0,0,0,0,0,0c0,0,0.1,0,0.2,0
		c0.1,0,0.1,0,0.2,0c0.1,0,0.2-0.1,0.3-0.2c0.1-0.1,0.2-0.2,0.4-0.3c0.1-0.1,0.3-0.1,0.4-0.1c0.2,0,0.4-0.1,0.5-0.1
		c0.1-0.1,0.1-0.1,0.1-0.2c0-0.1,0-0.1,0.1-0.2c0-0.1,0.1-0.1,0.2-0.1c0.1,0,0.2-0.1,0.3-0.1c0,0,0.1-0.1,0.1-0.1
		c0-0.1,0.1-0.1,0.1-0.2c0,0,0.1,0,0.1,0c0,0,0.1,0,0.1,0c0.1-0.1,0.2-0.2,0.3-0.3c0.1-0.1,0.2-0.2,0.3-0.3c0,0,0.1,0,0.1,0
		c0.1,0,0.1,0,0.2,0c0,0,0.1-0.1,0.1-0.2c0,0,0.1-0.1,0.1-0.1c0.1-0.2,0.3-0.2,0.4-0.3c0.1-0.1,0.2-0.1,0.3-0.2
		c0.2-0.1,0.3-0.3,0.4-0.4c0,0,0.1-0.1,0.1-0.1c0,0,0.1-0.1,0.1-0.1c0,0,0.1,0,0.1-0.1c0,0,0.1-0.1,0.1-0.1c0,0,0-0.1,0.1-0.1
		c0.1-0.1,0.2-0.2,0.2-0.2c0.1-0.1,0.2-0.2,0.2-0.3c0.3-0.4,0.6-0.8,0.8-1.2c0.1-0.1,0.1-0.2,0.2-0.3c0.1-0.1,0.1-0.2,0.2-0.3
		c0-0.1,0.1-0.1,0.1-0.2c0.1-0.1,0.2-0.2,0.3-0.4c0.1-0.2,0.1-0.4,0.2-0.5c0-0.1,0.1-0.3,0.1-0.4c0-0.1,0.1-0.2,0.1-0.3
		c0.1-0.2,0.2-0.4,0.3-0.7c0-0.1,0.1-0.1,0.1-0.2c0-0.1,0.1-0.1,0.1-0.2c0,0,0-0.1,0-0.1c0-0.1,0-0.1,0-0.2c0-0.1,0.1-0.2,0.2-0.4
		c0.1-0.1,0.1-0.2,0.2-0.4c0.1-0.4,0.1-0.9,0.1-1.3c0-0.4,0-0.8,0.1-1.2c0,0,0,0,0,0c0,0,0,0,0,0V13.4z"/>
	<rect x="55.5" y="8.7" class="st1" width="2.6" height="7.8"/>
	<path class="st1" d="M50.8,16.6c2.1,0,3.9-1.5,4.1-3.5h-2.6c-0.2,0.6-0.6,1.2-1.4,1.2c-1,0-1.5-0.8-1.5-1.7c0-0.8,0.5-1.6,1.5-1.6
		c0.9,0,1.3,0.6,1.4,1.2h2.6c-0.2-2-1.9-3.6-4.1-3.6c-2.1,0-3.3,1.3-3.8,2.5c-0.2,0.5-0.3,1-0.3,1.6C46.7,15.1,48.8,16.6,50.8,16.6"
		/>
	<path class="st1" d="M38.3,11c-0.2,0.5-0.3,1-0.3,1.6c0,2.4,2.1,3.9,4.1,3.9c2.1,0,3.9-1.5,4.1-3.5h-2.6c-0.2,0.6-0.6,1.2-1.4,1.2
		c-1,0-1.5-0.8-1.5-1.7c0-0.8,0.5-1.6,1.5-1.6c0.9,0,1.3,0.6,1.4,1.2h2.6c-0.2-2-1.9-3.6-4.1-3.6C40,8.6,38.7,9.9,38.3,11"/>
	<path class="st1" d="M40.6,3.8h-0.2V2.7h0.2c0.7,0,0.7,0.4,0.7,0.5C41.3,3.5,41.2,3.8,40.6,3.8 M44.4,0.3v7.5l-2-2.3
		c1-0.4,1.5-1.5,1.5-2.4c0-0.9-0.4-1.7-1-2.2c-0.6-0.4-1.2-0.6-2.4-0.6h-2.6V8h2.5V6.6L41.5,8h2.9H47V0.3H44.4z"/>
	<polygon class="st1" points="57.7,8 59.9,8 59.9,0.3 57.3,0.3 57.4,3.6 55.3,0.3 53.1,0.3 53.1,8 55.7,8 55.6,4.8 	"/>
	<polygon class="st1" points="64.5,2.7 65.9,2.7 65.9,0.3 60.5,0.3 60.5,2.7 61.9,2.7 61.9,8 64.5,8 	"/>
	<polygon class="st1" points="85.3,16.5 90,16.5 90,14.3 87.7,14.3 87.7,13.6 90,13.6 90,11.5 87.7,11.5 87.7,10.8 90,10.8 90,8.7 
		85.3,8.7 	"/>
	<polygon class="st1" points="66.6,16.5 71.3,16.5 71.3,14.3 68.9,14.3 68.9,13.6 71.3,13.6 71.3,11.5 68.9,11.5 68.9,10.8 
		71.3,10.8 71.3,8.7 66.6,8.7 	"/>
	<polygon class="st1" points="66.6,8 71.3,8 71.3,5.8 68.9,5.8 68.9,5.1 71.3,5.1 71.3,3 68.9,3 68.9,2.3 71.3,2.3 71.3,0.3 
		66.6,0.3 	"/>
	<polygon class="st1" points="47.7,8 52.4,8 52.4,5.8 50.1,5.8 50.1,5.1 52.4,5.1 52.4,3 50.1,3 50.1,2.3 52.4,2.3 52.4,0.3 
		47.7,0.3 	"/>
	<polygon class="st1" points="76.5,16.5 78.7,16.5 78.7,8.7 76.2,8.7 76.2,12 74.1,8.7 72,8.7 72,16.5 74.5,16.5 74.5,13.3 	"/>
	<polygon class="st1" points="83.3,11.1 84.7,11.1 84.7,8.7 79.3,8.7 79.3,11.1 80.7,11.1 80.7,16.5 83.3,16.5 	"/>
	<path class="st1" d="M62,14.1h-0.6v-3H62c0.6,0,0.9,0.2,1,0.5c0.2,0.4,0.3,0.9,0.3,1.1C63.3,13.9,62.5,14.1,62,14.1 M61.7,8.7h-3
		v7.8h3.1c2.6,0,4-1.4,4-3.9c0-1-0.2-1.7-0.7-2.4C64.1,8.7,62.6,8.7,61.7,8.7"/>
	<path class="st1" d="M33.4,14.2C33.4,14.2,33.4,14.2,33.4,14.2L33.4,14.2c-1,0-1.5-0.8-1.5-1.7c0-0.8,0.5-1.6,1.5-1.6v0
		c0,0,0,0,0,0c1.1,0,1.5,1,1.5,1.6C34.9,13.3,34.5,14.2,33.4,14.2 M33.4,8.6L33.4,8.6c-2.1,0-3.3,1.3-3.8,2.5
		c-0.2,0.5-0.3,1-0.3,1.6c0,2.4,2.1,3.9,4.1,3.9c0,0,0,0,0,0v0c2.3,0,4.1-1.8,4.1-4C37.5,10.4,35.7,8.6,33.4,8.6"/>
	<path class="st1" d="M33.4,5.8C33.4,5.8,33.4,5.8,33.4,5.8L33.4,5.8c-1,0-1.5-0.8-1.5-1.7c0-0.8,0.5-1.6,1.5-1.6v0c0,0,0,0,0,0
		c1.1,0,1.5,1,1.5,1.6C34.9,4.8,34.5,5.8,33.4,5.8 M33.4,0.2L33.4,0.2c-2.1,0-3.3,1.3-3.8,2.5c-0.2,0.5-0.3,1-0.3,1.6
		c0,2.4,2.1,3.9,4.1,3.9c0,0,0,0,0,0v0c2.3,0,4.1-1.8,4.1-4C37.5,1.9,35.7,0.2,33.4,0.2"/>
	<path class="st0" d="M35.6,25.7c0,0.9-0.5,1.4-0.8,1.6c-0.6,0.4-1.2,0.4-1.7,0.4h-0.7v-4h0.7c0.7,0,1.2,0.1,1.6,0.4
		C35.3,24.5,35.6,25.1,35.6,25.7 M36.1,25.8c0-0.6-0.3-1.5-1.1-2.1c-0.4-0.3-1-0.4-1.6-0.4h-1.4v4.9h1.4c0.6,0,1.2-0.1,1.6-0.4
		C35.9,27.2,36.1,26.2,36.1,25.8"/>
	<rect x="37.1" y="23.3" class="st0" width="0.5" height="4.9"/>
	<path class="st0" d="M45.1,26.9c-0.7,0.9-1.5,0.9-1.7,0.9c-1.1,0-2.1-0.9-2.1-2.1c0-1.1,0.9-2.1,2.1-2.1c0.3,0,1.2,0.1,1.7,0.9h0.6
		c-0.2-0.5-1-1.3-2.3-1.3c-1.4,0-2.6,1.1-2.6,2.6c0,1.5,1.2,2.5,2.6,2.5c0.8,0,1.7-0.4,2.3-1.4H45.1z"/>
	<path class="st0" d="M46.5,23.3v3.1c0,0.4,0.1,0.8,0.2,1c0.3,0.7,1,0.9,1.5,0.9c0.5,0,1.2-0.2,1.5-0.9c0.1-0.3,0.2-0.6,0.2-1v-3.1
		h-0.5v3.1c0,0.4-0.1,0.7-0.2,0.9c-0.3,0.6-0.8,0.6-1,0.6c-0.2,0-0.7-0.1-1-0.6C47.1,27,47,26.7,47,26.3v-3.1H46.5z"/>
	<polygon class="st0" points="50.9,28.2 53.5,28.2 53.5,27.8 51.4,27.8 51.4,23.3 50.9,23.3 	"/>
	<polygon class="st0" points="54.5,28.2 55,28.2 55,23.7 56.1,23.7 56.1,23.3 53.4,23.3 53.4,23.7 54.5,23.7 	"/>
	<path class="st0" d="M56.8,23.3v3.1c0,0.4,0.1,0.8,0.2,1c0.3,0.7,1,0.9,1.5,0.9c0.5,0,1.2-0.2,1.5-0.9c0.1-0.3,0.2-0.6,0.2-1v-3.1
		h-0.5v3.1c0,0.4-0.1,0.7-0.2,0.9c-0.3,0.6-0.8,0.6-1,0.6c-0.2,0-0.7-0.1-1-0.6c-0.1-0.2-0.2-0.5-0.2-0.9v-3.1H56.8z"/>
	<path class="st0" d="M61.4,28.2h0.5v-4.5h0.9c0.4,0,0.7,0,1,0.2c0.3,0.2,0.5,0.6,0.5,0.9c0,0.4-0.3,0.9-0.8,1
		C63.2,26,63,26,62.4,26l1.7,2.2h0.6l-1.4-1.8c1-0.1,1.5-0.8,1.5-1.5c0-0.6-0.3-1.1-0.9-1.4c-0.2-0.1-0.6-0.2-1.2-0.2h-1.3V28.2z"/>
	<polygon class="st0" points="65.7,28.2 68.4,28.2 68.4,27.8 66.1,27.8 66.1,25.9 68.3,25.9 68.3,25.5 66.1,25.5 66.1,23.7 
		68.4,23.7 68.4,23.3 65.7,23.3 	"/>
	<rect x="31.9" y="17.4" class="st0" width="0.5" height="4.9"/>
	<polygon class="st0" points="33.6,22.3 34.1,22.3 34.1,18 34.1,18 37.1,22.3 37.6,22.3 37.6,17.4 37.1,17.4 37.1,21.5 37.1,21.5 
		34.3,17.4 33.6,17.4 	"/>
	<path class="st0" d="M42.6,21c-0.7,0.9-1.5,0.9-1.7,0.9c-1.1,0-2.1-0.9-2.1-2.1c0-1.1,0.9-2.1,2.1-2.1c0.3,0,1.2,0.1,1.7,0.9h0.6
		c-0.2-0.5-1-1.3-2.3-1.3c-1.4,0-2.6,1.1-2.6,2.6c0,1.5,1.2,2.5,2.6,2.5c0.8,0,1.7-0.4,2.3-1.4H42.6z"/>
	<path class="st0" d="M48.5,19.8c0,1.2-1,2.1-2.1,2.1c-1.1,0-2.1-1-2.1-2.1c0-1.2,1-2.1,2.1-2.1C47.6,17.7,48.5,18.7,48.5,19.8
		 M49,19.8c0-1.5-1.2-2.6-2.6-2.6c-1.3,0-2.6,1-2.6,2.6c0,1.4,1.2,2.5,2.6,2.5C47.8,22.4,49,21.3,49,19.8"/>
	<polygon class="st0" points="49.8,22.3 50.3,22.3 50.3,18 50.3,18 53.2,22.3 53.7,22.3 53.7,17.4 53.2,17.4 53.2,21.5 53.2,21.5 
		50.4,17.4 49.8,17.4 	"/>
	<polygon class="st0" points="55.5,22.3 56,22.3 56,17.8 57.2,17.8 57.2,17.4 54.4,17.4 54.4,17.8 55.5,17.8 	"/>
	<path class="st0" d="M57.9,22.3h0.5v-4.5h0.9c0.4,0,0.7,0,1,0.2c0.3,0.2,0.5,0.6,0.5,0.9c0,0.4-0.3,0.9-0.8,1
		c-0.2,0.1-0.4,0.1-1.1,0.1l1.7,2.2h0.6l-1.4-1.8c1-0.1,1.5-0.8,1.5-1.5c0-0.6-0.3-1.1-0.9-1.4c-0.2-0.1-0.6-0.2-1.2-0.2h-1.3V22.3z
		"/>
	<path class="st0" d="M66.5,19.8c0,1.2-1,2.1-2.1,2.1c-1.1,0-2.1-1-2.1-2.1c0-1.2,1-2.1,2.1-2.1C65.5,17.7,66.5,18.7,66.5,19.8
		 M67,19.8c0-1.5-1.2-2.6-2.6-2.6c-1.3,0-2.6,1-2.6,2.6c0,1.4,1.2,2.5,2.6,2.5C65.8,22.4,67,21.3,67,19.8"/>
</g>
</svg>
