<?xml version="1.0" encoding="utf-8"?>
<!-- Generator: Adobe Illustrator 25.0.0, SVG Export Plug-In . SVG Version: 6.00 Build 0)  -->
<svg version="1.1" xmlns="http://www.w3.org/2000/svg" xmlns:xlink="http://www.w3.org/1999/xlink" x="0px" y="0px"
	 viewBox="0 0 403.5 124.2" style="enable-background:new 0 0 403.5 124.2;" xml:space="preserve">
<style type="text/css">
	.st0{fill:#020203;}
	.st1{fill:#E64011;}
	.st2{fill:#FFFFFF;}
	.st3{fill:#E64114;}
</style>
<g id="Livello_1">
	<rect x="234.6" y="66.2" class="st0" width="11.8" height="35.1"/>
	<g>
		<path class="st0" d="M213.4,101.9c9.7,0,17.4-6.9,18.5-16h-11.9c-0.7,2.6-2.8,5.3-6.4,5.3c-4.5,0-6.9-3.8-6.9-7.5
			c0-3.5,2.4-7.3,6.8-7.3c3.9,0,5.8,2.9,6.5,5.5h11.9c-1-9.2-8.7-16.2-18.5-16.2c-9.3,0-15,6-17.1,11.1c-0.9,2.2-1.4,4.7-1.4,7.4
			C194.9,95.1,204.5,101.9,213.4,101.9"/>
		<path class="st0" d="M156.8,76.7c-0.9,2.2-1.4,4.7-1.4,7.4c0,11,9.6,17.8,18.5,17.8c9.7,0,17.4-6.9,18.5-16h-11.9
			c-0.7,2.6-2.7,5.3-6.4,5.3c-4.5,0-6.9-3.8-6.9-7.5c0-3.5,2.4-7.3,6.8-7.3c3.9,0,5.8,2.9,6.5,5.5h11.9c-1-9.2-8.7-16.2-18.5-16.2
			C164.6,65.6,158.9,71.6,156.8,76.7"/>
		<path class="st0" d="M167.2,43.8h-1v-5h1.1c3.4,0,3.4,1.8,3.4,2.4C170.6,42.4,170.2,43.8,167.2,43.8 M184.6,28v33.7l-9-10.2
			c4.5-2,6.6-6.6,6.6-10.9c0-4-1.7-7.8-4.6-10c-2.6-2-5.3-2.6-10.9-2.6h-11.9v35.1h11.5v-6.4l5.4,6.4h13h11.8V28H184.6z"/>
	</g>
	<polygon class="st0" points="244.7,63.1 254.6,63.1 254.6,28 243.1,28 243.3,43 234,28 224.1,28 224.1,63.1 235.6,63.1 235.4,48.5 
			"/>
	<polygon class="st0" points="275.5,38.8 281.8,38.8 281.8,28 257.4,28 257.4,38.8 263.7,38.8 263.7,63.1 275.5,63.1 	"/>
	<polygon class="st0" points="369.5,101.3 390.9,101.3 390.9,91.2 380.3,91.2 380.3,88.1 390.9,88.1 390.9,78.6 380.3,78.6 
		380.3,75.5 390.9,75.5 390.9,66.2 369.5,66.2 	"/>
	<polygon class="st0" points="284.8,101.3 306.2,101.3 306.2,91.2 295.6,91.2 295.6,88.1 306.2,88.1 306.2,78.6 295.6,78.6 
		295.6,75.5 306.2,75.5 306.2,66.2 284.8,66.2 	"/>
	<polygon class="st0" points="284.8,63.1 306.2,63.1 306.2,53 295.6,53 295.6,50 306.2,50 306.2,40.4 295.6,40.4 295.6,37.3 
		306.2,37.3 306.2,28 284.8,28 	"/>
	<polygon class="st0" points="199.4,63.1 220.8,63.1 220.8,53 210.2,53 210.2,50 220.8,50 220.8,40.4 210.2,40.4 210.2,37.3 
		220.8,37.3 220.8,28 199.4,28 	"/>
	<polygon class="st0" points="329.9,101.3 339.8,101.3 339.8,66.2 328.3,66.2 328.5,81.2 319.2,66.2 309.3,66.2 309.3,101.3 
		320.8,101.3 320.6,86.7 	"/>
	<polygon class="st0" points="360.5,76.9 366.8,76.9 366.8,66.2 342.4,66.2 342.4,76.9 348.7,76.9 348.7,101.3 360.5,101.3 	"/>
	<g>
		<path class="st0" d="M264,90.5h-2.6V76.9h2.7c2.9,0,4,1.1,4.6,2c1.1,1.7,1.2,3.9,1.2,4.8C269.9,89.8,266.5,90.5,264,90.5
			 M262.9,66.2h-13.4v35.1h14c11.6,0,18.2-6.4,18.2-17.6c0-4.3-1.1-7.9-3.3-10.8C273.8,66.2,266.7,66.2,262.9,66.2"/>
		<path class="st0" d="M135,91.2c0,0-0.1,0-0.1,0v0c-4.5-0.1-6.8-3.8-6.8-7.5c0-3.5,2.4-7.3,6.8-7.3v0c0,0,0,0,0,0
			c4.9,0,6.8,4.6,6.8,7.4C141.7,86.9,139.6,91.2,135,91.2 M134.9,65.6L134.9,65.6c-9.3,0-15.1,6-17.2,11.1c-0.9,2.2-1.4,4.7-1.4,7.4
			c0,11,9.6,17.8,18.6,17.8c0,0,0,0,0,0v0c10.5,0,18.7-8,18.7-18.1C153.6,73.6,145.4,65.6,134.9,65.6"/>
		<path class="st0" d="M135,52.9c0,0-0.1,0-0.1,0v0c-4.5-0.1-6.8-3.8-6.8-7.5c0-3.5,2.4-7.3,6.8-7.3v0c0,0,0,0,0,0
			c4.9,0,6.8,4.6,6.8,7.4C141.7,48.6,139.6,52.9,135,52.9 M134.9,27.4L134.9,27.4c-9.3,0-15.1,6-17.2,11.1c-0.9,2.2-1.4,4.7-1.4,7.4
			c0,11,9.6,17.8,18.6,17.8c0,0,0,0,0,0v0c10.5,0,18.7-8,18.7-18.1C153.6,35.4,145.4,27.4,134.9,27.4"/>
	</g>
	<g>
		<path class="st1" d="M53.2,59.7c0,0,0,0.1,0,0.2c0,0.8,0,1.6,0.3,1.7c0.2,0.1,0.4,0.4,0.3,0.6c-0.1,0.3,0.1,0.4,0.3,0.5
			c0.1,0.1,0.2,0.1,0.2,0.2c0,0.1,0.1,0.2,0.1,0.4c0,0.2,0.1,0.4,0.1,0.5c0,0,0.2,0.2,0.4,0.4c0.8,0.9,1.8,1.8,2.2,1.8
			c0,0,0.1,0,0.1,0c0,0,0,0.1,0.1,0.1c0.2,0.2,0.6,0.3,1,0.3c0.5,0,1-0.1,1.2-0.1c0.1-0.1,0.2-0.1,0.3-0.2c0.2-0.1,0.3-0.1,0.5-0.1
			c0.1,0,0.2,0,0.3,0c0.1,0,0.2,0,0.3,0h0c0.3,0,0.6-0.2,0.9-0.3c0.3-0.1,0.6-0.3,0.9-0.3c0.4,0,0.9-0.2,1.2-0.6
			c0.3-0.4,1.3-0.8,1.8-1l0.1-0.1c0.6-0.2,0.6-0.7,0.7-1.1c0.1-0.4,0.1-0.7,0.4-0.9c0.1-0.1,0.1-0.2,0.2-0.5c0-0.2,0.1-0.5,0.2-0.6
			c0.2-0.2,0.2-0.5,0.1-0.8c0-0.2-0.1-0.3,0-0.5c0.2-1-0.3-2.9-1.3-3.5c-0.1-0.1-0.5-0.5-0.9-1c-0.7-0.8-1-1.1-1-1.1
			c-0.2-0.2-3.1-1.4-3.7-1.4c0,0,0,0-0.1,0c0,0,0,0-0.1,0.1c-0.2,0.2-0.7,0.3-1,0.3c-0.2,0-0.4,0-0.6,0c-0.2,0-0.4,0-0.6,0
			c-0.5,0-1,0.1-1.2,0.5c-0.1,0.2-0.3,0.2-0.5,0.2c-0.2,0-0.3,0-0.5,0.1c-0.2,0.1-0.1,0.3-0.1,0.4c0,0.1,0,0.1,0,0.1c0,0,0,0-0.1,0
			c0,0-0.1,0-0.2,0c0,0-0.1,0-0.1,0c-0.2,0-0.3,0.2-0.4,0.3c-0.1,0.1-0.1,0.2-0.2,0.3c-1.2,0.9-2,2.9-1.8,4.3c0,0-0.1,0.1-0.1,0.2
			c-0.2,0.3-0.4,0.5-0.3,0.7C53,59.6,53.1,59.7,53.2,59.7"/>
		<path d="M67.4,60.5c-0.1,0.1-0.2,0.4-0.2,0.6c0,0.2-0.1,0.4-0.2,0.5c-0.3,0.2-0.4,0.5-0.4,0.9c-0.1,0.4-0.2,0.9-0.7,1.1l-0.1,0.1
			c-0.5,0.2-1.5,0.6-1.8,1c-0.4,0.4-0.9,0.5-1.2,0.6c-0.3,0-0.6,0.2-0.9,0.3c-0.3,0.2-0.6,0.3-0.9,0.3l0,0c-0.1,0-0.2,0-0.3,0
			c-0.2,0-0.3,0-0.3,0c-0.2,0-0.3,0-0.5,0.1c-0.1,0-0.2,0.1-0.3,0.2c-0.1,0.1-0.7,0.1-1.2,0.1c-0.4,0-0.9,0-1-0.3c0,0,0-0.1-0.1-0.1
			c0,0-0.1,0-0.1,0c-0.4,0-1.3-0.9-2.2-1.8c-0.2-0.2-0.3-0.3-0.4-0.4c-0.1-0.1-0.1-0.3-0.1-0.5c0-0.2,0-0.3-0.1-0.4
			c-0.1-0.1-0.2-0.1-0.2-0.2c-0.2-0.1-0.4-0.2-0.3-0.5c0.1-0.2-0.1-0.5-0.3-0.6c-0.3-0.2-0.3-0.9-0.3-1.7c0-0.1,0-0.2,0-0.2
			c-0.1,0-0.2,0-0.2-0.1c-0.1-0.1,0.1-0.4,0.3-0.7c0.1-0.1,0.1-0.2,0.1-0.2c-0.2-1.4,0.7-3.4,1.8-4.3c0.1-0.1,0.1-0.2,0.2-0.3
			c0.1-0.2,0.2-0.3,0.4-0.3c0,0,0.1,0,0.1,0c0.1,0,0.1,0,0.2,0c0.1,0,0.1,0,0.1,0c0,0,0-0.1,0-0.1c0-0.1-0.1-0.3,0.1-0.4
			c0.1-0.1,0.3-0.1,0.5-0.1c0.2,0,0.4,0,0.5-0.2c0.2-0.4,0.7-0.5,1.2-0.5c0.2,0,0.4,0,0.6,0c0.2,0,0.4,0,0.6,0c0.3,0,0.8,0,1-0.3
			c0-0.1,0-0.1,0.1-0.1c0,0,0,0,0.1,0c0.5,0,3.5,1.2,3.7,1.4c0.1,0,0.3,0.3,1,1.1c0.4,0.4,0.8,0.9,0.9,1c1.1,0.6,1.5,2.6,1.3,3.5
			c0,0.1,0,0.3,0,0.5C67.6,60,67.7,60.3,67.4,60.5 M111,62.5C111,62.5,111,62.5,111,62.5C111,62.5,111,62.5,111,62.5
			c-0.3-1.2-0.3-2.3-0.3-3.3c0-0.7-0.1-1.4-0.1-2.1l0,0c-0.1-0.5-0.2-1.4-0.2-1.7c-0.1-0.2-0.2-0.5-0.3-0.7
			c-0.1-0.2-0.2-0.5-0.3-0.7c-0.2-0.6-0.2-1.2-0.3-1.7c0-0.3,0-0.6-0.1-0.9c-0.1-0.4-0.6-1.2-0.7-1.5c0-0.1-0.1-0.1-0.2-0.2
			c-0.1-0.1-0.2-0.2-0.2-0.3c-0.1-0.3-0.2-0.7-0.3-1.1c-0.1-0.5-0.2-0.9-0.3-1.3c-0.1-0.2-0.2-0.4-0.4-0.5c-0.2-0.2-0.3-0.4-0.4-0.6
			c-0.2-0.5-0.2-0.9-0.3-1.4c-0.1-0.6-0.2-1.2-0.5-1.8c-0.1-0.1-0.1-0.1-0.2-0.1c-0.1,0-0.2,0-0.3-0.1c-0.1-0.1-0.1-0.2-0.1-0.3
			c0-0.1,0-0.2-0.1-0.3c-0.1-0.1-0.3-0.2-0.5-0.3c-0.2-0.1-0.4-0.2-0.5-0.3c-0.1-0.1-0.1-0.4-0.2-0.7c-0.1-0.3-0.1-0.6-0.3-0.9
			c-0.1-0.2-0.3-0.3-0.4-0.5c-0.1-0.1-0.3-0.3-0.3-0.4c-0.1-0.1-0.1-0.3,0-0.5c0-0.2,0-0.4-0.1-0.5c-0.1-0.2-0.3-0.4-0.5-0.5
			c-0.2-0.2-0.4-0.3-0.6-0.5c-0.1-0.2-0.2-0.5-0.3-0.7c-0.1-0.3-0.2-0.5-0.4-0.8c-0.2-0.3-0.4-0.7-0.6-1c-0.1-0.1-0.2-0.2-0.2-0.4
			c-0.2-0.3-0.5-0.4-0.8-0.6c-0.2-0.1-0.5-0.2-0.6-0.4c-0.3-0.3-0.5-0.7-0.6-1.1c-0.1-0.4-0.3-0.7-0.5-0.9c-0.1-0.1-0.3-0.1-0.5-0.1
			c-0.1,0-0.3,0-0.4-0.1c-0.1-0.1-0.2-0.3-0.3-0.6c-0.1-0.2-0.2-0.5-0.3-0.6c-0.2-0.2-0.5-0.3-0.8-0.4C95.3,29,95,29,94.8,28.8
			c-0.3-0.2-0.5-0.6-0.8-0.9c-0.2-0.4-0.5-0.7-0.8-1c-0.1-0.1-0.3-0.1-0.5-0.2c-0.2,0-0.3-0.1-0.5-0.2c-0.4-0.3-0.9-0.8-1.4-1.4
			c-0.5-0.5-0.9-1-1.2-1.2c-0.1-0.1-0.4-0.1-0.6-0.1c-0.2,0-0.4,0-0.5,0c0,0-0.1-0.1-0.1-0.2c-0.1-0.1-0.1-0.3-0.2-0.3
			c-0.3-0.2-0.6-0.5-0.9-0.7c-0.4-0.3-0.7-0.6-1-0.8c-0.3-0.1-0.6-0.2-0.9-0.2c-0.3,0-0.5-0.1-0.8-0.2c-0.2-0.1-0.5-0.3-0.7-0.5
			c-0.2-0.2-0.4-0.3-0.5-0.4c-0.1,0-0.5,0-0.5,0c0,0-0.1,0.1-0.1,0.1c-0.1,0-0.2-0.2-0.3-0.4c-0.1-0.3-0.2-0.5-0.4-0.6
			c-0.3-0.2-0.7-0.3-1.1-0.4c-0.4-0.1-0.7-0.2-1.1-0.3c-0.3-0.1-0.6-0.2-0.8-0.4c-0.8-0.3-1.5-0.6-2.4-0.9c-0.2,0-0.4-0.1-0.6-0.2
			c-0.2-0.1-0.4-0.2-0.6-0.2c-0.1,0-0.3,0-0.5,0.1c-0.2,0-0.4,0.1-0.5,0.1c-0.2-0.1-0.3-0.2-0.4-0.3c-0.1-0.1-0.2-0.2-0.4-0.3
			c-0.3-0.1-0.7-0.1-1.1-0.1c-0.4,0-0.8,0-1.2-0.1c-0.3-0.1-0.6-0.2-0.9-0.3C69.8,16.2,69.4,16,69,16c-0.2,0-0.4,0.1-0.6,0.1
			c-0.2,0.1-0.3,0.1-0.5,0.1c-0.8,0-1.6-0.1-2.4-0.3c-0.8-0.2-1.7-0.3-2.5-0.3c-0.2,0-0.5,0.1-0.8,0.2c-0.5,0.2-1,0.3-1.3-0.1
			c0,0,0,0,0-0.1c0,0,0,0,0,0c0,0,0,0,0,0h-0.6c0,0,0,0,0,0c0,0,0,0,0,0c-0.6,0.2-1.2,0.2-1.8,0.2c-0.4,0-0.8,0-1.2,0
			c-0.4,0.1-0.7,0.2-1,0.4c-0.3,0.2-0.6,0.3-0.9,0.3c-0.2,0-0.5,0-0.9-0.1c-0.4-0.1-0.7-0.1-1.1-0.1c-0.5,0.1-1,0.3-1.6,0.5
			c-0.4,0.2-0.9,0.4-1.4,0.5c-0.3,0.1-0.5,0.1-0.8,0.1c-0.3,0-0.5,0-0.8,0.1c-0.4,0.1-0.8,0.3-1.2,0.6c-0.3,0.2-0.7,0.4-1,0.5
			c-0.3,0.1-0.5,0.1-0.8,0.1c-0.3,0-0.5,0-0.8,0.1c-1,0.3-2.2,0.9-3.3,1.5c-1.4,0.7-3,1.6-4.4,2.4c-0.2,0.1-1.2,0.5-1.5,0.6
			c-0.1,0-0.1,0.1-0.2,0.2c-0.1,0.1-0.1,0.2-0.2,0.2c-0.1,0.1-0.2,0.1-0.3,0.1c-0.1,0-0.2,0-0.3,0.1c-0.8,0.5-1.4,1-2,1.5
			c-0.4,0.3-0.8,0.7-1.3,1c-0.8,0.6-1.4,1.2-2.1,1.8c-0.1,0.1-0.3,0.3-0.4,0.5c-0.2,0.2-0.3,0.5-0.4,0.6c-0.1,0.1-0.3,0.1-0.5,0.1
			c-0.2,0-0.3,0-0.5,0.1c-0.4,0.3-0.8,0.7-1.2,1.2c-0.2,0.2-0.4,0.5-0.6,0.7c-0.1,0.1-0.3,0.2-0.4,0.3c-0.2,0.1-0.4,0.2-0.5,0.4
			c-0.2,0.2-0.2,0.4-0.3,0.6c-0.1,0.2-0.2,0.4-0.3,0.6c-0.1,0.1-0.3,0.2-0.5,0.3c-0.2,0.1-0.4,0.2-0.6,0.3c-0.2,0.2-0.3,0.5-0.4,0.9
			c-0.1,0.3-0.3,0.7-0.4,0.9c-0.1,0.1-0.2,0.2-0.3,0.3c-0.1,0.1-0.2,0.2-0.3,0.3c-0.2,0.3-0.5,0.6-0.7,0.9c-0.7,0.9-1.4,1.7-1.3,2.7
			c-0.7,0.1-0.8,0.5-0.9,1c0,0.2-0.1,0.4-0.2,0.6c-0.2,0.3-0.3,0.5-0.5,0.7c-0.2,0.3-0.5,0.6-0.7,1.2c-0.2,0.4-0.3,0.8-0.5,1.2
			c-0.2,0.4-0.3,0.7-0.5,1c-0.2,0.6-0.5,1-0.7,1.3c-0.1,0.2-0.2,0.3-0.3,0.5c-0.6,1.2-0.9,2.5-1.2,3.9c-0.1,0.7-0.3,1.4-0.5,2.1
			c-0.3,0.9-0.4,1.9-0.6,2.6l0,0.2c0,0.1-0.1,0.1-0.1,0.2c-0.1,0.1-0.1,0.1-0.1,0.2c0,0.1,0.1,0.2,0.1,0.3c0.1,0.1,0.1,0.1,0.1,0.2
			c0,0.1-0.1,0.2-0.2,0.3c-0.1,0.1-0.2,0.2-0.2,0.3c-0.4,1.4-0.1,2.8,0.2,3.9c0,0.1,0,0.2,0.1,0.3c-0.1-0.1-0.2-0.1-0.2-0.1
			c-0.1,0-0.2,0.2-0.3,0.3c-0.1,0.1-0.1,0.2-0.2,0.3c0,0,0,0,0,0c0,0,0,0,0,0c0,0,0,0,0,0c0,0,0,0,0,0v1.9c0,0,0,0,0,0c0,0,0,0,0,0
			c0,0,0,0,0,0c0,0,0,0,0,0c0.8,0.6,0.6,1.2,0.4,1.8c-0.1,0.3-0.2,0.5-0.2,0.8c0,0.3,0,0.7,0.1,1.1c0.1,0.4,0.1,0.7,0.1,1.1
			c0,1.6,0.1,2.5,0.6,4.1c0.2,0.7,0.4,1.4,0.6,2.1c0.3,1.1,0.6,2.3,1,3.3c0,0.1,0.1,0.1,0.2,0.3c0.1,0.1,0.3,0.3,0.4,0.4
			c0,0.1,0,0.3-0.1,0.6c-0.1,0.3-0.1,0.6-0.1,0.8c0,0.2,0.1,0.4,0.3,0.5c0.1,0.2,0.3,0.4,0.3,0.7c0.1,0.3,0.1,0.6,0.2,1
			c0,0.4,0.1,0.8,0.2,1.1c0.1,0.2,0.2,0.3,0.3,0.5c0.1,0.2,0.3,0.3,0.4,0.5c0.1,0.1,0,0.2,0,0.4c0,0.1-0.1,0.2,0,0.4
			c0.3,1.1,1.6,3.3,1.7,3.4c0.1,0.1,0.3,0.1,0.4,0c0.2,0,0.3,0,0.3,0c-0.4,0.8-0.1,1.3,0.4,2c0.3,0.5,1,1.3,1.6,2
			c0.3,0.3,0.6,0.7,0.8,0.9c0.2,0.2,0.3,0.4,0.4,0.6c0.1,0.2,0.2,0.4,0.3,0.5c0.2,0.2,0.4,0.3,0.6,0.3c0.2,0.1,0.4,0.1,0.5,0.3
			c0.1,0.2,0.2,0.4,0.3,0.6c0.1,0.2,0.1,0.3,0.2,0.4c0.4,0.5,0.9,0.8,1.5,1c0.7,0.3,1.3,0.6,1.5,1.4v0c0,0,0,0.1,0,0.1
			c0,0.1,0.1,0.2,0.1,0.2c0,0.2,0.2,0.3,0.3,0.3c0,0,0,0,0,0c0.4,0,0.6,0.4,0.8,0.7c0.2,0.2,0.3,0.5,0.5,0.6
			c0.1,0.1,0.3,0.1,0.4,0.1c0.1,0,0.2,0,0.3,0.1c0.2,0.1,0.3,0.3,0.4,0.5c0.2,0.2,0.3,0.5,0.6,0.6c0.1,0,0.2,0,0.4,0
			c0.2,0,0.5,0,0.6,0.1c0.1,0.1,0.2,0.3,0.2,0.5c0,0.2,0.1,0.4,0.2,0.5c0.2,0.3,0.6,0.4,1,0.5c0.4,0.1,0.7,0.2,1.1,0.5
			c0.2,0.2,0.3,0.5,0.4,0.8c0.1,0.3,0.2,0.6,0.4,0.8c0.2,0.1,0.5,0.2,0.9,0.3c0.4,0.1,0.7,0.1,1,0.2c0,0,0.1,0.1,0.2,0.1
			c0.1,0.1,0.2,0.2,0.3,0.2c0.2,0.1,0.5,0.2,0.6,0.2c0.1,0,0.1,0,0.1,0c0.2,0.1,0.3,0.4,0.4,0.6c0.1,0.3,0.2,0.5,0.4,0.6
			c0.1,0.1,0.3,0.1,0.6,0.1c0.2,0,0.5,0,0.7,0.1c0.4,0.1,0.7,0.5,1,0.8c0.2,0.2,0.4,0.4,0.6,0.5c0.3,0.1,0.8,0.2,1.2,0.3
			c0.4,0.1,0.8,0.1,1.1,0.2c0.2,0.1,0.4,0.1,0.6,0.2c0.5,0.1,1,0.3,1.5,0.5c1.1,0.5,2.2,0.7,3.8,1.1c0.4,0.1,0.8,0.2,1.3,0.4
			c0.4,0.1,0.9,0.3,1.3,0.4c0.9,0.2,1.8,0.2,2.6,0.2c0.7,0,1.3,0,2,0.1c0.2,0,0.4,0.1,0.5,0.2c0.2,0.1,0.4,0.2,0.6,0.2
			c0.6,0.1,1.3,0,2.2,0c1.3,0,2.7-0.1,3,0.2c0,0,0,0,0,0h1.5c0,0,0,0,0,0c0.6-0.2,1.1-0.4,1.6-0.7c0.5-0.3,1-0.5,1.6-0.6
			c0.2,0,0.3-0.1,0.4-0.1c0.1,0,0.2-0.1,0.3-0.1c0.3,0,0.5,0,0.8,0.1c0.3,0.1,0.6,0.1,0.8,0.1c0.2,0,0.4-0.2,0.7-0.3
			c0.2-0.1,0.4-0.3,0.7-0.4c0.1,0,0.2,0,0.3,0c0.2,0,0.3,0.1,0.5,0c0.1,0,0.2-0.1,0.3-0.3c0.1-0.1,0.2-0.2,0.3-0.2
			c0.1,0,0.3,0,0.4,0.1c0.1,0,0.3,0.1,0.4,0.1c0.1,0,0.2-0.1,0.4-0.2c0.1-0.1,0.2-0.1,0.3-0.2c0.3-0.1,0.5,0,0.6,0
			c0.1,0,0.2,0,0.2,0c0.2-0.1,0.3-0.2,0.5-0.4c0.2-0.1,0.3-0.3,0.5-0.4c0.1,0,0.2,0,0.3,0c0.2,0,0.3,0,0.5-0.1
			c0.1-0.1,0.2-0.2,0.2-0.3c0-0.1,0-0.1,0.1-0.2c0.2,0,0.4,0,0.6,0c0.2,0,0.4,0.1,0.6,0c0.4-0.1,0.8-0.4,1.2-0.8
			c0.4-0.3,0.9-0.7,1.4-0.9c0.4-0.2,1-0.3,1.5-0.3c0.6-0.1,1.2-0.2,1.6-0.5c0.2-0.2,0.3-0.4,0.3-0.7c0.1-0.2,0.1-0.5,0.3-0.6
			c0.2-0.2,0.5-0.3,0.9-0.4c0.3-0.1,0.7-0.2,1-0.4c0.1-0.1,0.2-0.2,0.3-0.4c0.1-0.2,0.3-0.5,0.5-0.6c0.1,0,0.2,0,0.4,0
			c0.2,0,0.4,0,0.5-0.1c0.4-0.3,0.6-0.6,0.9-1c0.3-0.4,0.6-0.8,0.9-0.9c0.1,0,0.3,0,0.5,0c0.2,0,0.5,0.1,0.6,0
			c0.1-0.1,0.3-0.3,0.4-0.6c0.1-0.2,0.2-0.3,0.3-0.4c0.5-0.5,1-0.8,1.6-1.2c0.3-0.2,0.6-0.4,1-0.6c0.6-0.5,1.1-1,1.5-1.6
			c0.1-0.2,0.3-0.3,0.4-0.5c0.1-0.1,0.3-0.2,0.5-0.3c0.2-0.1,0.3-0.2,0.4-0.3c0.1-0.2,0.2-0.3,0.3-0.5c0.1-0.2,0.1-0.3,0.2-0.5
			c0.3-0.3,0.5-0.6,0.8-0.9c0.3-0.3,0.6-0.6,0.9-0.9c1-1.3,1.9-2.7,2.9-4.1c0.2-0.4,0.4-0.8,0.6-1.1c0.2-0.4,0.4-0.8,0.6-1.2
			c0.2-0.2,0.3-0.4,0.4-0.5c0.3-0.4,0.6-0.7,0.9-1.5c0.3-0.7,0.5-1.3,0.7-1.9c0.2-0.5,0.3-0.9,0.5-1.4c0.1-0.3,0.3-0.6,0.4-0.9
			c0.3-0.8,0.6-1.6,1-2.6c0.1-0.2,0.2-0.4,0.3-0.6c0.1-0.3,0.3-0.5,0.3-0.7c0-0.2,0-0.3,0-0.5c0-0.2,0-0.4,0-0.6
			c0.1-0.4,0.3-0.9,0.5-1.2c0.2-0.4,0.4-0.8,0.5-1.3c0.4-1.5,0.4-3,0.4-4.5c0-1.4,0.1-2.8,0.4-4.1c0,0,0,0,0,0c0,0,0,0,0,0V62.5z"/>
	</g>
</g>
<g id="Livello_2">
</g>
</svg>
