<?xml version="1.0" encoding="utf-8"?>
<!-- Generator: Adobe Illustrator 24.0.1, SVG Export Plug-In . SVG Version: 6.00 Build 0)  -->
<svg version="1.1" id="Livello_1" xmlns="http://www.w3.org/2000/svg" xmlns:xlink="http://www.w3.org/1999/xlink" x="0px" y="0px"
	 viewBox="0 0 572.4 180.1" style="enable-background:new 0 0 572.4 180.1;" xml:space="preserve">
<style type="text/css">
	.st0{fill:#E33226;}
</style>
<g id="Logo">
	<g>
		<g>
			<path d="M224.7,23.1c0-14.1,9.5-22.9,21.6-22.9c12.1,0,21.6,8.4,21.6,22.5s-9.5,22.9-21.6,22.9C234.2,45.6,224.7,37.2,224.7,23.1
				z M262.1,22.9c0-11-7.1-17.6-15.8-17.6s-15.8,6.6-15.8,17.6s7.1,17.6,15.8,17.6S262.1,34,262.1,22.9z"/>
			<path d="M310.2,45.1c-1.1,0.3-2.3,0.5-3.6,0.5c-5.7,0-8-2.9-10.3-7.2l-5.9-11.1h-8.9v17.9h-5.7V0.7H292c8.3,0,14.5,4.7,14.5,13.5
				c0,6.8-3.8,11.1-9.5,12.6l5.5,10.6c1.4,2.7,3.1,3.1,4.7,3.1c1.1,0,2-0.1,2.6-0.3L310.2,45.1L310.2,45.1z M292,22.6
				c5.8,0,8.7-3.6,8.7-8.4s-2.9-8.4-8.7-8.4h-10.6v16.9H292z"/>
			<path d="M315.7,0.7h5.7v44.6h-5.7V0.7z"/>
			<path d="M361.7,40.2v5.1h-30V0.7h29.6v5.1h-23.9v13.7h21.8v5.1h-21.8v15.5L361.7,40.2L361.7,40.2z"/>
			<path d="M403.8,0.7v44.6h-5.8L374.6,9.6v35.7h-5.7V0.7h5.9l23.3,35.6V0.7H403.8z"/>
			<path d="M423.7,5.8h-14.6V0.7h35v5.1h-14.6v39.5h-5.7L423.7,5.8L423.7,5.8z"/>
			<path d="M479.3,40.2v5.1h-30V0.7H479v5.1h-23.9v13.7h21.8v5.1h-21.8v15.5L479.3,40.2L479.3,40.2z"/>
			<path d="M224.7,83.1c0-14.1,9.5-22.9,21.6-22.9c12.1,0,21.6,8.4,21.6,22.5s-9.5,22.9-21.6,22.9
				C234.2,105.6,224.7,97.3,224.7,83.1z M262.1,82.9c0-11-7.1-17.6-15.8-17.6s-15.8,6.6-15.8,17.6s7.1,17.6,15.8,17.6
				S262.1,94,262.1,82.9z"/>
			<path d="M306.3,89.5h5.9c-1.1,9.5-7.1,16.1-18.9,16.1s-20-8.4-20-22.7s8.5-22.7,20-22.7s17.9,6.6,18.9,16.3h-5.9
				c-0.8-6.4-4.6-11.2-13-11.2S279,72,279,83s6.2,17.6,14.3,17.6S305.6,95.8,306.3,89.5L306.3,89.5z"/>
			<path d="M350.2,89.5h5.9c-1.1,9.5-7.1,16.1-18.9,16.1s-20-8.4-20-22.7s8.5-22.7,20-22.7s17.9,6.6,18.9,16.3h-5.9
				c-0.8-6.4-4.6-11.2-13-11.2S322.9,72,322.9,83s6.2,17.6,14.3,17.6S349.4,95.8,350.2,89.5L350.2,89.5z"/>
			<path d="M363.8,60.7h5.7v44.6h-5.7V60.7z"/>
			<path d="M417,83c0,14-8.6,22.3-20.9,22.3h-16.2V60.7h16.2C408.4,60.7,417,68.9,417,83L417,83z M411.2,83
				c0-10.9-6.2-17.2-15.2-17.2h-10.5v34.5H396C405,100.2,411.2,93.9,411.2,83z"/>
			<path d="M454.9,100.2v5.1h-30V60.7h29.6v5.1h-23.9v13.7h21.8v5.1h-21.8v15.5L454.9,100.2L454.9,100.2z"/>
			<path d="M496.9,60.7v44.6h-5.8l-23.3-35.7v35.7H462V60.7h5.8l23.3,35.6V60.7H496.9z"/>
			<path d="M516.9,65.8h-14.6v-5.1h35v5.1h-14.6v39.5h-5.7L516.9,65.8L516.9,65.8z"/>
			<path d="M572.4,100.2v5.1h-30V60.7h29.6v5.1h-23.9v13.7H570v5.1h-21.8v15.5L572.4,100.2L572.4,100.2z"/>
		</g>
		<g>
			<path class="st0" d="M225.2,127.4h3.7v20.6h-3.7V127.4L225.2,127.4z"/>
			<path class="st0" d="M250.8,127.4v20.6h-3.5l-9.8-15v15h-3.6v-20.6h3.5l9.8,15.1v-15.1H250.8z"/>
			<path class="st0" d="M269.5,140.4h3.6c-0.5,4.4-3.3,7.7-9.1,7.7c-5.5,0-9.5-4-9.5-10.5s4-10.5,9.5-10.5c5.8,0,8.7,3.3,9.1,7.7
				h-3.6c-0.4-2.5-2-4.5-5.4-4.5s-5.9,2.8-5.9,7.3c0,4.6,2.5,7.3,5.9,7.3C267.6,144.9,269.1,142.9,269.5,140.4z"/>
			<path class="st0" d="M275.4,137.7c0-6.5,4.4-10.6,10.2-10.6s10.2,4,10.2,10.4c0,6.5-4.4,10.5-10.2,10.5S275.4,144.2,275.4,137.7z
				 M292.1,137.6c0-4.6-2.9-7.3-6.5-7.3s-6.5,2.7-6.5,7.3s2.9,7.3,6.5,7.3S292.1,142.2,292.1,137.6z"/>
			<path class="st0" d="M316.5,127.4v20.6h-3.5l-9.8-15v15h-3.6v-20.6h3.5l9.8,15.1v-15.1H316.5z"/>
			<path class="st0" d="M325.8,130.5h-6.6v-3.1h16.8v3.1h-6.6v17.4h-3.7L325.8,130.5L325.8,130.5z"/>
			<path class="st0" d="M355.6,147.8c-0.5,0.1-1.2,0.3-2,0.3c-2.9,0-4-1.4-5-3.3l-2.4-4.6h-3.6v7.8h-3.7v-20.6h8
				c4.4,0,7.2,2.3,7.2,6.4c0,2.9-1.6,4.9-4,5.8l2.1,4c0.5,1.1,1.2,1.4,2,1.4c0.5,0,0.9-0.1,1.2-0.1L355.6,147.8L355.6,147.8z
				 M342.5,137.3h4.3c2.3,0,3.5-1.4,3.5-3.4s-1.2-3.4-3.5-3.4h-4.3V137.3z"/>
			<path class="st0" d="M357.2,137.7c0-6.5,4.4-10.6,10.2-10.6s10.2,4,10.2,10.4c0,6.5-4.4,10.5-10.2,10.5S357.2,144.2,357.2,137.7z
				 M373.8,137.6c0-4.6-2.9-7.3-6.5-7.3s-6.5,2.7-6.5,7.3s2.9,7.3,6.5,7.3S373.8,142.2,373.8,137.6z"/>
			<path class="st0" d="M243,169.6c0,6.5-4,10.3-9.9,10.3h-7.8v-20.6h7.8C238.9,159.4,243,163.2,243,169.6L243,169.6z M239.3,169.6
				c0-4.7-2.6-7.2-6.2-7.2h-4.2v14.4l4.2,0C236.7,176.9,239.3,174.4,239.3,169.6L239.3,169.6z"/>
			<path class="st0" d="M246.7,159.4h3.7v20.6h-3.7V159.4z"/>
			<path class="st0" d="M275.6,172.4h3.6c-0.5,4.4-3.3,7.7-9.1,7.7s-9.5-4-9.5-10.5s4-10.5,9.5-10.5c5.8,0,8.7,3.3,9.1,7.7h-3.6
				c-0.4-2.5-2-4.5-5.4-4.5s-5.9,2.8-5.9,7.3c0,4.6,2.5,7.3,5.9,7.3C273.8,176.9,275.3,174.9,275.6,172.4z"/>
			<path class="st0" d="M299.4,159.4v12.5c0,5.2-3.2,8.3-8.4,8.3s-8.4-3.1-8.4-8.3v-12.5h3.7v12.5c0,3.4,1.7,5.1,4.8,5.1
				s4.7-1.7,4.7-5.1v-12.5H299.4z"/>
			<path class="st0" d="M318.1,176.7v3.2h-14v-20.6h3.7v17.4H318.1z"/>
			<path class="st0" d="M322.2,162.5h-6.6v-3.1h16.8v3.1h-6.6v17.4h-3.7L322.2,162.5L322.2,162.5z"/>
			<path class="st0" d="M351.8,159.4v12.5c0,5.2-3.2,8.3-8.4,8.3s-8.4-3.1-8.4-8.3v-12.5h3.7v12.5c0,3.4,1.7,5.1,4.8,5.1
				s4.7-1.7,4.7-5.1v-12.5H351.8z"/>
			<path class="st0" d="M373.2,179.8c-0.5,0.1-1.2,0.3-2,0.3c-2.9,0-4-1.4-5-3.3l-2.4-4.6h-3.6v7.8h-3.7v-20.6h8
				c4.4,0,7.2,2.3,7.2,6.5c0,2.9-1.6,4.9-4,5.8l2.1,4c0.5,1.1,1.2,1.4,2,1.4c0.5,0,0.9-0.1,1.2-0.1L373.2,179.8L373.2,179.8z
				 M360.2,169.3h4.3c2.3,0,3.5-1.4,3.5-3.4s-1.2-3.4-3.5-3.4h-4.3V169.3L360.2,169.3z"/>
			<path class="st0" d="M390.6,176.8v3.1h-14.3v-20.6h14.1v3.1H380v5.4h9.4v3.1H380v5.9H390.6z"/>
		</g>
		<g>
			<path d="M180,86L180,86L180,86c-0.5-2.1-0.5-4.1-0.6-6.1c0-1.3-0.1-2.6-0.3-3.9V76c-0.1-0.9-0.3-2.5-0.5-3.1
				c-0.1-0.5-0.3-0.9-0.6-1.4c-0.2-0.4-0.4-0.9-0.5-1.3c-0.3-1.1-0.4-2.2-0.5-3.1c0-0.6-0.1-1.2-0.2-1.7c-0.1-0.8-1-2.2-1.4-2.7
				c-0.1-0.1-0.2-0.2-0.3-0.4c-0.1-0.2-0.3-0.3-0.4-0.5c-0.2-0.6-0.4-1.3-0.5-2c-0.1-0.8-0.3-1.7-0.6-2.4c-0.2-0.3-0.4-0.6-0.6-0.9
				c-0.3-0.3-0.5-0.7-0.7-1c-0.3-0.9-0.4-1.7-0.6-2.5c-0.2-1.1-0.3-2.2-1-3.2c-0.1-0.2-0.3-0.2-0.4-0.2c-0.1,0-0.3,0-0.5-0.2
				c-0.1-0.1-0.1-0.3-0.1-0.6s0-0.4-0.1-0.5c-0.3-0.3-0.6-0.4-0.9-0.5c-0.4-0.1-0.7-0.3-0.9-0.6c-0.2-0.3-0.3-0.7-0.4-1.2
				c-0.1-0.6-0.2-1.2-0.5-1.7c-0.2-0.3-0.5-0.6-0.7-0.9c-0.3-0.2-0.5-0.5-0.6-0.7c-0.1-0.2-0.1-0.5-0.1-0.8c0-0.3,0-0.7-0.1-0.9
				c-0.2-0.4-0.6-0.7-1-1c-0.4-0.3-0.8-0.6-1-1s-0.4-0.8-0.6-1.3c-0.2-0.5-0.4-1-0.7-1.4c-0.4-0.6-0.8-1.2-1.1-1.8
				c-0.1-0.2-0.3-0.4-0.4-0.7c-0.3-0.5-0.9-0.8-1.5-1.1c-0.5-0.2-0.9-0.4-1.2-0.7c-0.5-0.6-0.8-1.3-1.1-2.1
				c-0.2-0.6-0.5-1.3-0.9-1.7c-0.2-0.2-0.5-0.2-0.8-0.3c-0.3,0-0.6-0.1-0.7-0.2c-0.2-0.2-0.4-0.6-0.5-1.1c-0.1-0.4-0.3-0.9-0.6-1.1
				c-0.4-0.4-0.9-0.6-1.5-0.7c-0.5-0.1-1-0.3-1.4-0.6c-0.6-0.4-1-1.1-1.4-1.7c-0.4-0.7-0.9-1.4-1.5-1.8c-0.2-0.2-0.6-0.3-0.9-0.3
				c-0.3-0.1-0.6-0.2-0.9-0.3c-0.8-0.5-1.7-1.5-2.6-2.6c-0.8-1-1.6-1.9-2.3-2.3c-0.2-0.1-0.6-0.1-1.1-0.1c-0.4,0-0.7,0-1-0.1
				c0,0-0.1-0.2-0.2-0.3c-0.1-0.2-0.3-0.5-0.5-0.6c-0.6-0.4-1.1-0.8-1.6-1.3c-0.7-0.5-1.3-1.1-1.9-1.4c-0.5-0.3-1.1-0.3-1.7-0.4
				c-0.5-0.1-1-0.1-1.5-0.3c-0.4-0.1-0.8-0.5-1.3-0.9c-0.4-0.3-0.7-0.5-0.9-0.7c-0.2-0.1-0.9-0.1-1,0c-0.1,0.1-0.1,0.2-0.2,0.1
				c-0.1,0-0.3-0.4-0.5-0.8c-0.2-0.5-0.4-1-0.8-1.2c-0.5-0.3-1.2-0.5-2-0.7c-0.7-0.2-1.4-0.4-2-0.6c-0.6-0.2-1.1-0.4-1.5-0.7
				c-1.4-0.6-2.7-1.2-4.5-1.6c-0.4-0.1-0.7-0.2-1.1-0.3c-0.4-0.1-0.8-0.3-1.1-0.3c-0.3,0-0.6,0-0.9,0.1c-0.3,0.1-0.6,0.2-0.9,0.1
				c-0.4-0.1-0.6-0.3-0.8-0.6s-0.4-0.4-0.7-0.5c-0.6-0.1-1.2-0.2-1.9-0.2c-0.8,0-1.5-0.1-2.3-0.2c-0.5-0.1-1.1-0.3-1.6-0.5
				c-0.8-0.3-1.5-0.6-2.2-0.6c-0.4,0-0.7,0.1-1.1,0.2c-0.3,0.1-0.6,0.2-0.9,0.2c-1.4,0.1-2.9-0.2-4.4-0.5c-1.5-0.3-3.1-0.6-4.7-0.6
				c-0.4,0-0.9,0.2-1.4,0.3c-0.9,0.3-1.8,0.6-2.3-0.3c0,0,0-0.1,0-0.1s0-0.1,0-0.1c0,0,0-0.1-0.1-0.1h-1.1c0,0,0,0,0,0c0,0,0,0,0,0
				c-1.1,0.4-2.3,0.4-3.4,0.4c-0.7,0-1.4,0-2.2,0.1c-0.7,0.1-1.3,0.4-1.9,0.7c-0.6,0.3-1.1,0.6-1.7,0.6c-0.4,0.1-1,0-1.6-0.1
				c-0.7-0.1-1.3-0.2-2-0.1c-0.9,0.1-1.8,0.5-2.9,0.9c-0.8,0.3-1.6,0.7-2.5,0.9c-0.5,0.1-1,0.1-1.5,0.1s-0.9,0-1.4,0.1
				c-0.8,0.2-1.5,0.6-2.2,1c-0.6,0.4-1.2,0.7-1.9,0.9c-0.5,0.2-1,0.2-1.5,0.2c-0.5,0-1,0.1-1.4,0.2c-1.9,0.6-4,1.7-6,2.7
				c-2.5,1.2-5.4,2.8-8,4.4c-0.4,0.3-2.3,0.9-2.7,1.1c-0.1,0.1-0.2,0.2-0.3,0.4c-0.1,0.2-0.2,0.3-0.3,0.5c-0.2,0.2-0.4,0.2-0.6,0.2
				c-0.2,0-0.4,0.1-0.5,0.2c-1.4,1-2.6,1.9-3.7,2.8c-0.7,0.6-1.5,1.2-2.3,1.8c-1.5,1.1-2.6,2.1-3.8,3.3c-0.2,0.3-0.5,0.6-0.7,1
				c-0.3,0.4-0.6,0.8-0.8,1c-0.2,0.2-0.5,0.2-0.9,0.2c-0.3,0-0.6,0.1-0.9,0.2c-0.8,0.5-1.5,1.3-2.1,2.1c-0.4,0.4-0.7,0.9-1,1.2
				c-0.2,0.2-0.5,0.4-0.8,0.6c-0.3,0.2-0.7,0.4-1,0.7c-0.3,0.3-0.4,0.8-0.6,1.2c-0.1,0.4-0.3,0.8-0.5,1s-0.6,0.4-0.9,0.5
				c-0.4,0.1-0.8,0.3-1.1,0.6c-0.3,0.4-0.5,1-0.8,1.6c-0.2,0.6-0.5,1.3-0.8,1.7c-0.1,0.2-0.4,0.4-0.5,0.5c-0.2,0.2-0.4,0.3-0.6,0.6
				c-0.4,0.6-0.9,1.1-1.3,1.7c-1.3,1.6-2.5,3.1-2.3,4.9c-1.2,0.1-1.4,0.9-1.6,1.8c-0.1,0.4-0.2,0.8-0.4,1.1
				c-0.3,0.5-0.6,0.9-0.9,1.2c-0.5,0.6-0.9,1.1-1.3,2.1c-0.3,0.8-0.6,1.4-0.9,2.1c-0.3,0.6-0.6,1.2-0.8,1.9
				c-0.5,1.1-0.9,1.8-1.3,2.4c-0.2,0.3-0.4,0.6-0.5,0.9c-1.2,2.1-1.7,4.6-2.2,7.1C3.3,66.7,3,68,2.7,69.2c-0.5,1.7-0.8,3.4-1,4.7
				l-0.1,0.4c0,0.1-0.1,0.2-0.2,0.3c-0.1,0.1-0.2,0.2-0.2,0.4c0,0.2,0.1,0.4,0.3,0.5c0.1,0.1,0.2,0.2,0.2,0.4c0,0.2-0.2,0.4-0.3,0.6
				c-0.1,0.2-0.3,0.4-0.3,0.5c-0.7,2.6-0.2,5.1,0.3,7.2c0,0.2,0.1,0.4,0.1,0.6c-0.2-0.1-0.3-0.1-0.4-0.1c-0.2,0.1-0.4,0.3-0.5,0.6
				c-0.1,0.2-0.2,0.4-0.3,0.5l0,0c0,0,0,0,0,0c0,0,0,0,0,0l0,0v3.5l0,0c0,0,0,0,0,0c0,0,0,0,0,0l0,0c1.4,1.1,1.1,2.2,0.7,3.4
				c-0.2,0.5-0.3,0.9-0.3,1.4c0,0.6,0.1,1.2,0.2,1.9c0.1,0.7,0.2,1.4,0.2,2c0.1,3,0.2,4.6,1.1,7.5c0.4,1.3,0.7,2.6,1.1,3.9
				c0.6,2.1,1.1,4.3,1.8,6c0,0.1,0.2,0.3,0.4,0.5c0.3,0.3,0.6,0.6,0.7,0.8c0.1,0.2,0,0.6-0.1,1c-0.1,0.5-0.2,1-0.1,1.4
				c0.1,0.3,0.3,0.6,0.5,1c0.2,0.4,0.5,0.7,0.6,1.2c0.2,0.6,0.2,1.2,0.3,1.8c0.1,0.7,0.1,1.4,0.4,1.9c0.1,0.3,0.4,0.6,0.6,0.8
				c0.3,0.3,0.5,0.6,0.7,0.9c0.1,0.3,0.1,0.4,0,0.6c-0.1,0.2-0.1,0.4,0,0.7c0.5,2,2.9,6.1,3.1,6.2c0.2,0.1,0.5,0.1,0.8,0.1
				c0.3,0,0.5,0,0.5,0.1c-0.7,1.6-0.1,2.4,0.7,3.6c0.6,0.9,1.9,2.4,3,3.6c0.6,0.6,1.1,1.2,1.4,1.7c0.3,0.3,0.5,0.8,0.8,1.2
				c0.2,0.4,0.4,0.7,0.6,0.8c0.3,0.3,0.8,0.5,1.1,0.6c0.4,0.1,0.7,0.3,0.9,0.5c0.3,0.3,0.4,0.8,0.5,1.2c0.1,0.3,0.2,0.6,0.3,0.8
				c0.6,0.9,1.7,1.4,2.7,1.9c1.3,0.6,2.5,1.1,2.8,2.5l0,0l0,0c0,0,0,0.1,0.1,0.1c0,0.1,0.1,0.3,0.1,0.4c0.1,0.3,0.3,0.5,0.6,0.6l0,0
				l0,0c0.7,0.1,1.1,0.7,1.5,1.4c0.3,0.5,0.6,0.9,0.9,1.1c0.2,0.1,0.5,0.1,0.7,0.1c0.2,0,0.4,0,0.6,0.1c0.3,0.2,0.5,0.5,0.7,0.9
				c0.3,0.4,0.6,0.9,1.1,1.1c0.1,0.1,0.4,0.1,0.7,0.1c0.4,0,0.9,0,1,0.1c0.2,0.2,0.3,0.6,0.4,1c0.1,0.4,0.1,0.7,0.3,1
				c0.4,0.5,1.1,0.7,1.8,0.9c0.7,0.2,1.4,0.4,2,0.8c0.4,0.3,0.6,0.9,0.8,1.4c0.2,0.5,0.4,1.1,0.8,1.5c0.3,0.3,1,0.4,1.7,0.5
				c0.7,0.1,1.3,0.2,1.9,0.4c0.1,0,0.2,0.1,0.4,0.3c0.2,0.1,0.3,0.3,0.5,0.4c0.3,0.2,0.8,0.3,1.1,0.4c0.1,0,0.2,0,0.2,0
				c0.3,0.2,0.5,0.7,0.6,1.1c0.2,0.5,0.4,0.9,0.7,1.1c0.2,0.1,0.6,0.1,1,0.1c0.4,0,0.9,0,1.2,0.1c0.7,0.3,1.3,1,1.9,1.5
				c0.4,0.4,0.8,0.8,1,0.9c0.6,0.2,1.4,0.4,2.2,0.5c0.7,0.1,1.4,0.2,2,0.4c0.4,0.1,0.8,0.2,1.2,0.4c0.9,0.3,1.9,0.6,2.8,1
				c2.1,0.9,4,1.4,6.9,2c0.8,0.2,1.6,0.4,2.3,0.7c0.8,0.2,1.6,0.5,2.4,0.7c1.6,0.3,3.2,0.4,4.8,0.4c1.3,0,2.5,0.1,3.6,0.2
				c0.4,0,0.7,0.2,1,0.3c0.3,0.1,0.7,0.3,1,0.3c1,0.1,2.4,0.1,3.9,0c2.4-0.1,4.9-0.1,5.6,0.4c0,0,0,0,0.1,0H97c0,0,0,0,0,0
				c1.1-0.3,2-0.8,2.9-1.2c0.9-0.5,1.9-1,2.9-1.2c0.3,0,0.6-0.2,0.8-0.3c0.2-0.1,0.4-0.2,0.5-0.2c0.5-0.1,1,0,1.5,0.1
				c0.5,0.1,1,0.2,1.4,0.1c0.4-0.1,0.8-0.3,1.2-0.6c0.4-0.2,0.8-0.5,1.2-0.7c0.2-0.1,0.4,0,0.6,0c0.3,0,0.6,0.1,1,0
				c0.2-0.1,0.4-0.3,0.6-0.5c0.2-0.2,0.4-0.4,0.5-0.4c0.2,0,0.5,0,0.8,0.1c0.3,0.1,0.5,0.2,0.8,0.1c0.2,0,0.4-0.2,0.7-0.3
				c0.2-0.1,0.4-0.3,0.6-0.3c0.5-0.1,0.9-0.1,1.1,0c0.2,0,0.3,0.1,0.4,0c0.3-0.1,0.6-0.4,0.9-0.6c0.3-0.2,0.6-0.5,0.9-0.7
				c0.1-0.1,0.3-0.1,0.5-0.1c0.3,0,0.6,0,0.9-0.2c0.3-0.2,0.3-0.4,0.4-0.6c0.1-0.1,0.1-0.3,0.2-0.3c0.3-0.1,0.7,0,1.1,0
				c0.4,0,0.8,0.1,1.2,0c0.7-0.2,1.4-0.8,2.1-1.4c0.8-0.6,1.6-1.3,2.6-1.7c0.8-0.3,1.8-0.5,2.7-0.6c1.2-0.2,2.3-0.4,2.9-0.9
				c0.4-0.3,0.5-0.8,0.6-1.3c0.1-0.4,0.2-0.9,0.5-1.1c0.3-0.3,0.9-0.5,1.6-0.7c0.6-0.2,1.2-0.3,1.8-0.6c0.2-0.1,0.3-0.4,0.5-0.7
				c0.2-0.4,0.5-0.9,0.8-1.1c0.2-0.1,0.4-0.1,0.7-0.1c0.3,0,0.6,0,0.9-0.1c0.7-0.5,1.2-1.2,1.6-1.8c0.5-0.7,1-1.4,1.7-1.7
				c0.2-0.1,0.6,0,1,0c0.4,0,0.8,0.1,1.1,0c0.3-0.1,0.5-0.6,0.8-1c0.2-0.3,0.4-0.6,0.5-0.8c0.9-1,1.9-1.5,2.9-2.1
				c0.6-0.4,1.2-0.7,1.8-1.2c1.1-0.8,2-1.9,2.8-2.9c0.3-0.3,0.5-0.6,0.8-0.9c0.2-0.3,0.5-0.4,0.8-0.6c0.3-0.1,0.5-0.3,0.7-0.5
				c0.2-0.3,0.4-0.6,0.5-0.9c0.1-0.3,0.2-0.6,0.4-0.9c0.5-0.6,1-1.1,1.5-1.6c0.5-0.5,1.1-1.1,1.6-1.7c1.8-2.4,3.6-4.9,5.3-7.5
				c0.5-0.7,0.8-1.4,1.1-2.1c0.3-0.8,0.7-1.5,1.1-2.1c0.3-0.4,0.5-0.7,0.8-1c0.6-0.7,1.1-1.3,1.7-2.8c0.5-1.2,0.9-2.3,1.3-3.4
				c0.3-0.9,0.6-1.7,1-2.6c0.2-0.6,0.5-1.2,0.7-1.7c0.6-1.5,1.2-2.9,1.8-4.7c0.1-0.4,0.3-0.8,0.5-1.1c0.2-0.5,0.5-0.9,0.6-1.3
				c0.1-0.3,0-0.6,0-0.9c0-0.4-0.1-0.7,0-1c0.2-0.8,0.6-1.6,1-2.3c0.4-0.8,0.8-1.5,1-2.4c0.7-2.8,0.8-5.6,0.8-8.2
				c0.1-2.6,0.1-5.1,0.7-7.4l0,0l0,0L180,86L180,86z"/>
			<path class="st0" d="M100.4,80.9c-0.1-0.3-0.1-0.6-0.1-0.8c0.4-1.8-0.5-5.3-2.4-6.4c-0.2-0.1-0.9-0.9-1.6-1.8
				c-1.3-1.5-1.7-2-1.9-2c-0.3-0.4-5.7-2.5-6.7-2.5c-0.1,0-0.1,0-0.1,0c0,0,0,0-0.1,0.1c-0.4,0.4-1.2,0.5-1.8,0.5c-0.3,0-0.7,0-1,0
				c-0.4,0-0.7,0-1,0c-0.9,0-1.8,0.1-2.1,0.9c-0.1,0.3-0.5,0.3-0.9,0.4c-0.3,0-0.6,0.1-0.9,0.2c-0.3,0.2-0.2,0.5-0.1,0.7
				c0,0.1,0.1,0.2,0.1,0.2c0,0,0,0-0.1,0c-0.1,0-0.2,0-0.3,0c-0.1,0-0.1,0-0.2,0c-0.4,0-0.5,0.3-0.7,0.6c-0.1,0.2-0.2,0.4-0.3,0.5
				c-2.1,1.7-3.6,5.3-3.3,7.9c0,0-0.1,0.2-0.2,0.3c-0.4,0.5-0.6,0.9-0.5,1.2c0.1,0.1,0.2,0.2,0.4,0.2c0,0.1,0,0.2,0,0.4
				c0,1.4,0,2.8,0.5,3.1c0.3,0.2,0.7,0.6,0.6,1c-0.2,0.5,0.2,0.8,0.5,1c0.2,0.1,0.4,0.2,0.5,0.4c0.1,0.1,0.1,0.4,0.2,0.7
				c0.1,0.4,0.1,0.7,0.2,0.8c0.1,0.1,0.4,0.3,0.7,0.7c1.5,1.6,3.2,3.2,3.9,3.2c0.1,0,0.1,0,0.1,0c0,0.1,0,0.2,0.1,0.2
				c0.3,0.4,1.2,0.5,1.8,0.5c0.9,0,1.8-0.1,2.1-0.3c0.3-0.1,0.4-0.2,0.6-0.3c0.4-0.2,0.5-0.3,0.9-0.3c0.2,0,0.4,0,0.6,0
				c0.2,0,0.4,0,0.6,0h0c0.5,0,1.1-0.3,1.7-0.6c0.5-0.3,1.1-0.5,1.6-0.6c0.6-0.1,1.6-0.3,2.2-1c0.6-0.7,2.4-1.4,3.4-1.8l0.2-0.1
				c1-0.4,1.2-1.2,1.3-2c0.1-0.6,0.2-1.2,0.8-1.6c0.2-0.1,0.2-0.4,0.3-0.8c0.1-0.4,0.2-0.9,0.4-1.1C100.7,82,100.5,81.4,100.4,80.9"
				/>
		</g>
	</g>
</g>
</svg>
